<svg xmlns="http://www.w3.org/2000/svg" viewBox="0 0 100 100" width="100" height="100">
  <defs>
    <linearGradient id="goldGrad" x1="0%" y1="0%" x2="100%" y2="100%">
      <stop offset="0%" stop-color="#F59E0B" />
      <stop offset="100%" stop-color="#D4AF37" />
    </linearGradient>
  </defs>
  <!-- Background Circle with dark tint -->
  <circle cx="50" cy="50" r="48" fill="#101423" stroke="#2b365e" stroke-width="2" />
  
  <!-- Chef Hat Drawing -->
  <path d="M35 55 C20 52 20 30 38 32 C38 18 62 18 62 32 C80 30 80 52 65 55 C65 58 63 68 60 72 C58 75 42 75 40 72 C37 68 35 58 35 55 Z" fill="url(#goldGrad)" />
  
  <!-- Hat Band details -->
  <path d="M38 58 L62 58 C63 60 62 65 60 68 L40 68 C38 65 37 60 38 58 Z" fill="#090c15" />
  <line x1="45" y1="58" x2="45" y2="68" stroke="#D4AF37" stroke-width="1.5" />
  <line x1="50" y1="58" x2="50" y2="68" stroke="#D4AF37" stroke-width="1.5" />
  <line x1="55" y1="58" x2="55" y2="68" stroke="#D4AF37" stroke-width="1.5" />
  
  <!-- Subtle Glow Effect -->
  <circle cx="50" cy="50" r="42" fill="none" stroke="#D4AF37" stroke-width="1" stroke-dasharray="4 8" opacity="0.4" />
</svg>
